<?xml version="1.0" encoding="UTF-8" standalone="no"?>
<!-- Created with Inkscape (http://www.inkscape.org/) -->

<svg
   width="512.0px"
   height="512.0px"
   viewBox="0 0 512.0 512.0"
   version="1.1"
   id="SVGRoot"
   sodipodi:docname="light-brown-h-icon-hoodiemoder.svg"
   inkscape:version="1.2.2 (b0a8486541, 2022-12-01)"
   xmlns:inkscape="http://www.inkscape.org/namespaces/inkscape"
   xmlns:sodipodi="http://sodipodi.sourceforge.net/DTD/sodipodi-0.dtd"
   xmlns="http://www.w3.org/2000/svg"
   xmlns:svg="http://www.w3.org/2000/svg">
  <sodipodi:namedview
     id="namedview3811"
     pagecolor="#ffffff"
     bordercolor="#999999"
     borderopacity="1"
     inkscape:showpageshadow="0"
     inkscape:pageopacity="0"
     inkscape:pagecheckerboard="0"
     inkscape:deskcolor="#d1d1d1"
     inkscape:document-units="px"
     showgrid="true"
     inkscape:zoom="1.1838289"
     inkscape:cx="158.80673"
     inkscape:cy="274.53291"
     inkscape:window-width="1920"
     inkscape:window-height="1011"
     inkscape:window-x="0"
     inkscape:window-y="32"
     inkscape:window-maximized="1"
     inkscape:current-layer="layer1">
    <inkscape:grid
       type="xygrid"
       id="grid3934" />
  </sodipodi:namedview>
  <defs
     id="defs3806">
    <inkscape:path-effect
       effect="bspline"
       id="path-effect4784"
       is_visible="true"
       lpeversion="1"
       weight="33.333333"
       steps="2"
       helper_size="0"
       apply_no_weight="true"
       apply_with_weight="true"
       only_selected="false" />
    <inkscape:path-effect
       effect="bspline"
       id="path-effect2444-9"
       is_visible="true"
       lpeversion="1"
       weight="33.333333"
       steps="2"
       helper_size="0"
       apply_no_weight="true"
       apply_with_weight="true"
       only_selected="false" />
    <inkscape:path-effect
       effect="bspline"
       id="path-effect2440-2"
       is_visible="true"
       lpeversion="1"
       weight="33.333333"
       steps="2"
       helper_size="0"
       apply_no_weight="true"
       apply_with_weight="true"
       only_selected="false" />
  </defs>
  <g
     inkscape:label="Layer 1"
     inkscape:groupmode="layer"
     id="layer1">
    <path
       style="fill:#8f7376;fill-rule:evenodd;stroke:#000000;stroke-linecap:round;stroke-linejoin:round;stroke-miterlimit:0;fill-opacity:1;stroke-opacity:1;stroke-width:15;stroke-dasharray:none"
       d="M 85.333835,85.333835 C 170.66767,0 341.33433,0 426.66716,85.33554 512,170.67108 512,341.33433 426.66546,426.66716 341.33092,512 170.66767,512 85.333835,426.66546 0,341.33092 0,170.66767 85.333835,85.333835 Z"
       id="path4782"
       inkscape:path-effect="#path-effect4784"
       inkscape:original-d="m 0,0 c 170.66767,0.001 341.33433,0.001 512,0 10e-4,170.67108 10e-4,341.33433 0,512 -170.66908,10e-4 -341.33233,10e-4 -512,0 C 0.001,341.33092 0.001,170.66767 0,0 Z" />
    <g
       id="g2588"
       transform="matrix(30.236223,0,0,30.23622,-13504.001,-14684.001)"
       style="stroke:#000000;stroke-opacity:1;stroke-width:0.99218747;stroke-dasharray:none;stroke-linejoin:round;paint-order:stroke markers fill;stroke-linecap:round;fill:#ebebeb;fill-opacity:1">
      <path
         style="fill:#ebebeb;fill-opacity:1;fill-rule:evenodd;stroke:#000000;stroke-width:0.99218747;stroke-linecap:round;stroke-linejoin:round;stroke-miterlimit:0;stroke-dasharray:none;stroke-opacity:1;paint-order:stroke markers fill"
         d="m 452.4375,496.97596 c 0,0.88195 0,1.3229 0.22062,1.54326 0.22062,0.22036 0.66158,0.22036 0.88193,0 0.22036,-0.22036 0.22036,-0.66131 0.22036,-1.32279 0,-0.66147 0,-1.5434 0.44111,-1.9845 0.44112,-0.4411 1.32306,-0.4411 1.76389,1e-5 0.44084,0.44111 0.44084,1.32305 0.44084,1.98451 0,0.66146 0,1.10241 0.22062,1.32277 0.22062,0.22036 0.66158,0.22036 0.88193,0 0.22036,-0.22036 0.22036,-0.66131 0.22036,-1.54327 0,-0.88197 0,-2.20486 -0.88183,-2.86645 -0.88183,-0.66159 -2.64567,-0.66159 -3.52775,10e-6 -0.88208,0.66161 -0.88208,1.9845 -0.88208,2.86645 z"
         id="path2442-0"
         inkscape:path-effect="#path-effect2444-9"
         inkscape:original-d="m 452.4375,497.41666 c 2.6e-4,0.44125 2.6e-4,0.8822 0,1.32292 0.44124,2.6e-4 0.8822,2.6e-4 1.32291,0 2.7e-4,-0.44072 2.7e-4,-0.88167 0,-1.32292 2.7e-4,-0.8817 2.7e-4,-1.76363 0,-2.64583 0.88223,2.6e-4 1.76417,2.6e-4 2.64584,0 2.6e-4,0.88222 2.6e-4,1.76416 0,2.64583 2.6e-4,0.44125 2.6e-4,0.8822 0,1.32292 0.44124,2.6e-4 0.8822,2.6e-4 1.32291,0 2.7e-4,-0.44072 2.7e-4,-0.88167 0,-1.32292 2.7e-4,-1.32268 2.7e-4,-2.64557 0,-3.96875 -1.76366,2.7e-4 -3.5275,2.7e-4 -5.29166,0 2.6e-4,1.32321 2.6e-4,2.6461 0,3.96875 z" />
      <path
         style="fill:#ebebeb;fill-opacity:1;fill-rule:evenodd;stroke:#000000;stroke-width:0.99218747;stroke-linecap:round;stroke-linejoin:round;stroke-miterlimit:0;stroke-dasharray:none;stroke-opacity:1;paint-order:stroke markers fill"
         d="m 452.4375,491.68427 c 0,-1.32291 0,-1.76386 0.22062,-1.98448 0.22062,-0.22063 0.66158,-0.22063 0.88193,0 0.22036,0.22062 0.22036,0.66157 0.22036,1.98451 0,1.32295 0,3.52777 0,4.85069 0,1.32292 0,1.76387 -0.22036,1.98423 -0.22035,0.22036 -0.66131,0.22036 -0.88193,0 -0.22062,-0.22036 -0.22062,-0.66131 -0.22062,-1.98425 0,-1.32295 0,-3.52778 0,-4.8507 z"
         id="path2438-6"
         inkscape:path-effect="#path-effect2440-2"
         inkscape:original-d="m 452.4375,490.80208 c 2.6e-4,-0.44072 2.6e-4,-0.88167 0,-1.32292 0.44124,2.7e-4 0.8822,2.7e-4 1.32291,0 2.7e-4,0.44125 2.7e-4,0.8822 0,1.32292 2.7e-4,2.20517 2.7e-4,4.40999 0,6.61458 2.7e-4,0.44125 2.7e-4,0.8822 0,1.32292 -0.44071,2.6e-4 -0.88167,2.6e-4 -1.32291,0 2.6e-4,-0.44072 2.6e-4,-0.88167 0,-1.32292 2.6e-4,-2.20464 2.6e-4,-4.40947 0,-6.61458 z" />
    </g>
  </g>
</svg>
