<?xml version="1.0" encoding="UTF-8" standalone="no"?>
<!-- Created with Inkscape (http://www.inkscape.org/) -->

<svg
   width="1024"
   height="1024"
   viewBox="0 0 1024 1024"
   version="1.1"
   id="SVGRoot"
   xmlns="http://www.w3.org/2000/svg"
   xmlns:svg="http://www.w3.org/2000/svg">
  <defs
     id="defs11031" />
  <rect
     style="opacity:1;fill:#5f3f7f;fill-opacity:1;fill-rule:evenodd;stroke-linecap:round;stroke-linejoin:round;stroke-miterlimit:0;paint-order:stroke markers fill"
     id="rect343"
     width="1024"
     height="1024"
     x="0"
     y="0" />
  <path
     style="fill:#ebebeb;fill-opacity:1;fill-rule:evenodd;stroke:#000000;stroke-width:35.347;stroke-linecap:round;stroke-linejoin:round;stroke-miterlimit:0;stroke-dasharray:none;stroke-opacity:1;paint-order:stroke markers fill"
     d="m 465.44099,716.22852 c 0.10217,-1.57926 0.3064,-4.73583 0.3856,-9.2778 0.0792,-4.54196 0.0333,-10.46849 0.0333,-17.17648 0,-6.70799 0.0459,-14.1979 0.19511,-21.21083 0.14918,-7.01291 0.40168,-13.55013 0.74769,-19.38071 0.346,-5.83058 0.78553,-10.95438 1.60713,-16.77514 0.82159,-5.82076 2.02515,-12.33741 3.28001,-17.09346 1.25487,-4.75605 2.56135,-7.7513 3.9508,-10.62132 1.38947,-2.87004 2.86027,-5.61184 5.3,-8.36577 2.43973,-2.75393 5.84898,-5.51896 10.1363,-7.6445 4.28734,-2.12554 9.45329,-3.61221 14.41955,-4.24743 4.96625,-0.63521 9.73315,-0.41913 14.44524,0.27175 4.71209,0.69088 9.36902,1.8563 13.43184,3.9263 4.06282,2.07 7.529,5.0425 10.36557,8.82508 2.83656,3.78258 5.04269,8.37414 6.83307,13.55945 1.79037,5.18531 3.16498,10.96359 4.17302,16.26348 1.00804,5.29991 1.6495,10.1207 2.1573,16.12189 0.50781,6.00118 0.88194,13.18219 1.06331,20.89676 0.18136,7.71457 0.16996,15.96214 0.17573,22.55486 0.006,6.59271 0.0287,11.53019 0.0988,16.51584 0.0701,4.98565 0.18709,10.0195 0.36327,14.38841 0.17619,4.36892 0.41143,8.0724 0.74255,11.68535 0.33111,3.61294 0.75801,7.13468 1.27293,10.26937 0.51493,3.1347 1.11713,5.87909 1.86541,8.80002 0.74828,2.92093 1.64245,6.01753 2.66191,8.8566 1.01947,2.83906 2.16294,5.4183 3.65278,8.16837 1.48982,2.75006 3.32472,5.66869 5.23236,8.24967 1.90763,2.58099 3.88785,4.8243 6.13442,6.93505 2.24659,2.11075 4.76157,4.09076 7.29751,5.76917 2.53595,1.67841 5.0931,3.05579 7.77298,4.28104 2.67988,1.22523 5.47917,2.29703 8.36857,3.19604 2.8894,0.89902 5.86359,1.62385 8.92581,2.11336 3.06222,0.48952 6.21268,0.74359 10.00275,0.74355 3.79006,-5e-5 8.22213,-0.25407 11.81264,-0.76159 3.5905,-0.50753 6.33932,-1.26824 9.14273,-2.1969 2.8034,-0.92867 5.66098,-2.02516 9.05995,-3.81335 3.39899,-1.78819 7.3396,-4.26807 10.37675,-6.53074 3.03716,-2.26268 5.17039,-4.30766 7.22113,-6.72022 2.05074,-2.41256 4.01808,-5.19149 5.91002,-8.44511 1.89195,-3.25363 3.70754,-6.98031 5.05531,-10.31132 1.34778,-3.33101 2.22824,-6.26827 2.95486,-9.06479 0.72663,-2.79653 1.29923,-5.45163 1.76691,-8.49324 0.46768,-3.04161 0.83034,-6.4695 1.11443,-9.74731 0.2841,-3.27783 0.48943,-6.40285 0.68685,-10.30758 0.19742,-3.90471 0.38673,-8.58572 0.50437,-12.93649 0.11763,-4.35077 0.16355,-8.36997 0.20947,-12.92659 0.0459,-4.55662 0.0919,-9.64984 0.11482,-14.95967 0.023,-5.30983 0.023,-10.83559 0.0255,-15.57642 0.003,-4.74083 0.008,-8.69665 -0.12023,-13.89947 -0.12775,-5.20282 -0.38824,-11.65144 -0.64699,-16.71922 -0.25874,-5.06778 -0.51588,-8.75608 -0.81029,-12.46739 -0.29441,-3.71131 -0.62599,-7.44445 -1.00297,-11.07725 -0.37698,-3.6328 -0.79936,-7.16476 -1.39038,-11.09273 -0.59102,-3.92796 -1.35076,-8.2523 -2.19943,-12.49693 -0.84868,-4.24464 -1.78642,-8.40997 -2.86007,-12.70498 -1.07365,-4.29501 -2.28365,-8.72139 -3.88086,-13.49924 -1.59721,-4.77785 -3.58239,-9.90924 -5.79681,-15.01511 -2.21442,-5.10586 -4.65784,-10.18567 -7.1988,-14.75736 -2.54096,-4.57168 -5.17983,-8.63548 -8.26297,-12.80478 -3.08316,-4.16929 -6.61102,-8.44456 -9.7401,-11.9464 -3.12907,-3.50185 -5.86004,-6.23082 -9.09536,-9.09225 -3.23531,-2.86144 -6.97557,-5.85571 -11.37296,-8.88724 -4.39737,-3.03152 -9.45139,-6.09991 -14.00839,-8.5635 -4.55699,-2.46359 -8.61634,-4.32194 -13.35129,-6.31856 -4.73495,-1.99662 -10.14476,-4.13116 -16.09325,-6.07079 -5.9485,-1.93963 -12.43442,-3.68386 -19.181,-5.12384 -6.74658,-1.43996 -13.75352,-2.5755 -19.02338,-3.28865 -5.26986,-0.71316 -8.80497,-1.00406 -13.44559,-1.27242 -4.6406,-0.26838 -10.38836,-0.51432 -15.28589,-0.59708 -4.89753,-0.0827 -8.94515,-0.002 -14.31009,0.32811 -5.36495,0.33041 -12.04692,0.91079 -17.89455,1.6257 -5.84764,0.71491 -10.85939,1.56419 -13.36575,1.47688 -2.50635,-0.0874 -2.50635,-1.11137 -2.50635,-2.13542 0,0 0.10327,-6.68701 0.10651,-7.6628 0.003,-0.97579 0.01,-2.92631 0.002,-5.24509 -0.009,-2.31878 -0.0312,-5.00603 -0.0467,-7.3171 -0.0154,-2.31107 -0.0234,-4.24849 -0.0217,-6.16697 0.002,-1.91847 0.0131,-3.8187 0.0188,-4.76927 0.006,-0.95057 -0.0976,-12.46342 -0.10114,-14.68771 -0.004,-2.2243 -0.0107,-6.67324 -0.008,-11.16976 0.002,-4.49651 0.0135,-9.04029 0.0193,-14.00488 0.006,-4.9646 0.006,-10.3493 0.002,-14.92909 -0.004,-4.57979 -0.0113,-8.35432 -0.038,-13.17697 -0.0267,-4.82265 -0.0727,-10.69278 -0.0956,-13.62815 -0.023,-2.93535 -0.12624,-15.57429 -0.1492,-17.60578 -0.023,-2.0315 -0.0689,-6.09558 -0.0919,-8.12774 -0.023,-2.03218 -0.43614,-13.56294 -0.55091,-15.40987 -0.11477,-1.84694 -0.34427,-5.53999 -0.65233,-9.09207 -0.30807,-3.5521 -0.69496,-6.96481 -1.08638,-9.70177 -0.39141,-2.73694 -0.78718,-4.79749 -1.23184,-6.99891 -0.44466,-2.20143 -0.93809,-4.54309 -1.50553,-6.62643 -0.56743,-2.08334 -1.20931,-3.90909 -2.06097,-6.07462 -0.85164,-2.16553 -1.91499,-4.67558 -3.12407,-7.03754 -1.20909,-2.36196 -2.56428,-4.57664 -3.66203,-6.19847 -1.09775,-1.62182 -1.93905,-2.65173 -2.36041,-3.16753 -0.42134,-0.51581 -3.54066,-4.13621 -4.32915,-4.82918 -0.7885,-0.69297 -2.3655,-2.07895 -4.07281,-3.45386 -1.70731,-1.37491 -3.54409,-2.73783 -5.65788,-4.04157 -2.11377,-1.30375 -4.50661,-2.54918 -7.08136,-3.68195 -2.57476,-1.13277 -5.33159,-2.1531 -8.48574,-3.00881 -3.15415,-0.85571 -6.70459,-1.54638 -9.82118,-1.99981 -3.11659,-0.45343 -5.801,-0.66959 -8.78423,-0.64659 -2.98322,0.023 -6.26253,0.28491 -9.29778,0.6687 -3.03525,0.3838 -5.8257,0.88955 -8.76911,1.71917 -2.94342,0.82963 -6.03602,1.98181 -9.08613,3.38703 -3.05012,1.40522 -6.05269,3.06094 -8.53515,4.67358 -2.48247,1.61265 -4.43938,3.17851 -6.6778,5.29601 -2.23843,2.1175 -4.75555,4.78413 -6.89449,7.51704 -2.13895,2.73291 -3.89874,5.53061 -5.36373,8.45726 -1.46499,2.92664 -2.63482,5.98157 -3.5368,8.65392 -0.90198,2.67234 -1.53516,4.9588 -2.16797,7.52095 -0.63281,2.56215 -1.26532,5.40041 -1.77258,8.69458 -0.50724,3.29417 -0.8894,7.04489 -1.17054,10.37298 -0.28115,3.32809 -0.46137,6.23511 -0.66105,9.22206 -0.19968,2.98695 -0.41889,6.0551 -0.55719,9.89783 -0.13829,3.84272 -0.19569,8.45964 -0.2531,13.06958 -0.0574,4.60994 -0.11481,9.21167 -0.14351,13.65275 -0.0287,4.44109 -0.0287,8.7214 -0.0402,12.72541 -0.0115,4.004 -0.0345,7.73139 -0.0412,11.37877 -0.007,3.64738 0.003,7.21434 0.002,11.80119 -9.4e-4,4.58685 -0.0124,10.19294 -0.041,16.6203 -0.0286,6.42736 -0.0746,13.67533 -0.0976,17.29941 -0.023,3.62408 0.0804,19.04415 0.0828,22.30802 0.003,3.26386 0.008,9.79057 0.0157,15.76767 0.009,5.97708 0.0197,11.40422 0.0138,16.51327 -0.006,5.10905 -0.0287,9.8998 -0.0403,12.29487 -0.0115,2.39508 0.0918,23.92782 0.0516,26.43633 -0.0402,2.50852 -0.12052,7.52533 -0.14921,14.51122 -0.0286,6.98591 -0.006,15.94072 5.3e-4,27.72955 0.007,11.78881 -0.005,26.411 -0.0324,36.15928 -0.0283,9.74827 -0.0741,14.62192 -0.0971,17.05836 -0.023,2.43643 0.18369,32.26257 0.18364,38.62999 -6e-5,6.36741 -1.8e-4,19.10118 -0.002,29.92374 -0.002,10.82256 -0.005,19.73352 0.0172,26.45186 0.0216,6.71834 0.0675,11.24444 0.1553,15.4245 0.0878,4.18007 0.21748,8.01383 0.39481,11.37906 0.17733,3.36523 0.40229,6.26215 0.89867,10.31224 0.49637,4.0501 1.26409,9.25319 2.14154,13.67812 0.87746,4.42493 1.86447,8.07111 3.08815,11.64778 1.22368,3.57667 2.68449,7.08539 4.22489,10.03561 1.54039,2.95021 3.15924,5.34091 4.90865,7.61572 1.74941,2.27482 3.62625,4.43006 6.16962,6.73046 2.54338,2.3004 5.74957,4.74276 8.67157,6.64534 2.922,1.9026 5.55719,3.2639 9.07739,4.64214 3.52019,1.37823 7.92412,2.773 12.06609,3.64801 4.14196,0.875 8.02153,1.23015 11.90072,1.32664 3.87918,0.0965 7.75699,-0.0655 11.47889,-0.59606 3.72188,-0.53052 7.28663,-1.42935 10.67605,-2.55288 3.38942,-1.12353 6.60582,-2.47247 9.60273,-4.02646 2.9969,-1.55398 5.7768,-3.31447 8.3128,-5.20976 2.53599,-1.8953 4.82983,-3.9267 6.861,-6.11829 2.03119,-2.19159 3.80241,-4.5468 5.35012,-6.83551 1.54771,-2.28871 2.8728,-4.51194 4.11851,-7.04801 1.24572,-2.53608 2.41216,-5.3854 3.41092,-8.19957 0.99876,-2.81417 1.82916,-5.59069 2.54765,-8.69523 0.71849,-3.10454 1.3243,-6.53395 1.80171,-9.92673 0.47741,-3.39276 0.82632,-6.74886 1.10745,-10.02159 0.28114,-3.27274 0.49471,-6.46563 0.60147,-8.06155 0.10675,-1.59592 0.0584,-1.57385 0.16055,-3.1531 z"
     id="path3639" />
</svg>
