<?xml version="1.0" encoding="UTF-8" standalone="no"?>
<!-- Created with Inkscape (http://www.inkscape.org/) -->

<svg
   width="1024"
   height="1024"
   viewBox="0 0 1024 1024"
   version="1.1"
   id="SVGRoot"
   xmlns="http://www.w3.org/2000/svg"
   xmlns:svg="http://www.w3.org/2000/svg">
  <defs
     id="defs11031" />
  <path
     style="fill:#ebebeb;fill-opacity:1;fill-rule:evenodd;stroke:#000000;stroke-width:58.4247;stroke-linecap:round;stroke-linejoin:round;stroke-miterlimit:0;stroke-dasharray:none;stroke-opacity:1;paint-order:stroke markers fill"
     d="m 435.04273,849.56783 c 0.16888,-2.61034 0.50645,-7.82783 0.63737,-15.33519 0.13091,-7.50739 0.055,-17.3033 0.055,-28.39089 0,-11.08758 0.0758,-23.4676 0.32249,-35.05923 0.24658,-11.59158 0.66394,-22.3969 1.23585,-32.03423 0.5719,-9.63731 1.2984,-18.10641 2.6564,-27.7275 1.35802,-9.6211 3.34738,-20.39242 5.42152,-28.25366 2.07417,-7.86124 4.23364,-12.81207 6.53025,-17.5559 2.29665,-4.74387 4.72772,-9.27577 8.76032,-13.82771 4.03262,-4.55196 9.66775,-9.12226 16.75422,-12.63554 7.08651,-3.51331 15.62528,-5.97061 23.83397,-7.02055 8.20867,-1.04993 16.08785,-0.69279 23.87644,0.44917 7.78856,1.14194 15.48598,3.06827 22.20138,6.48974 6.71541,3.4215 12.44463,8.33474 17.13318,14.58693 4.68852,6.25219 8.33502,13.84155 11.29434,22.4123 2.95928,8.57077 5.23136,18.12165 6.89755,26.88179 1.66617,8.76019 2.72644,16.72844 3.56577,26.64776 0.83936,9.91931 1.45777,21.78875 1.75755,34.54009 0.29976,12.75137 0.28093,26.38372 0.29045,37.28079 0.0105,10.89703 0.0475,19.05814 0.16332,27.2989 0.11581,8.24074 0.30923,16.56116 0.60044,23.78249 0.29123,7.22135 0.68006,13.34282 1.22737,19.31463 0.54728,5.97181 1.2529,11.79285 2.10401,16.97415 0.85111,5.18134 1.84649,9.71751 3.08332,14.54551 1.23682,4.82799 2.71479,9.94632 4.39984,14.63901 1.68509,4.69265 3.5751,8.95586 6.03767,13.50143 2.4625,4.54555 5.49541,9.36974 8.64852,13.63581 3.15311,4.26612 6.4262,7.97407 10.13953,11.4629 3.71339,3.48886 7.87038,6.7616 12.06201,9.53582 4.19165,2.77424 8.41835,5.0509 12.84791,7.0761 4.42954,2.02518 9.05648,3.79675 13.83234,5.28272 4.77587,1.48598 9.69188,2.68405 14.7534,3.49316 5.06154,0.80913 10.2689,1.22906 16.53347,1.22901 6.26456,-9e-5 13.59031,-0.41997 19.52503,-1.25883 5.93472,-0.8389 10.47822,-2.09627 15.11195,-3.63125 4.63373,-1.53499 9.35699,-3.34737 14.97512,-6.30305 5.61818,-2.9557 12.13158,-7.05467 17.15165,-10.7946 5.02012,-3.73998 8.54611,-7.12012 11.93578,-11.10782 3.38963,-3.98769 6.64143,-8.58097 9.76862,-13.95885 3.1272,-5.37791 6.12815,-11.53772 8.35589,-17.04351 2.22772,-5.5058 3.68304,-10.36079 4.88406,-14.98313 1.20104,-4.62236 2.1475,-9.01096 2.92052,-14.03839 0.77303,-5.02747 1.37246,-10.69341 1.84202,-16.11126 0.46959,-5.41792 0.80898,-10.58325 1.1353,-17.03734 0.32631,-6.45407 0.63921,-14.19128 0.83366,-21.38264 0.19444,-7.19134 0.27034,-13.83466 0.34623,-21.36626 0.0758,-7.53161 0.15191,-15.95015 0.18978,-24.72673 0.038,-8.77658 0.038,-17.91007 0.0422,-25.74616 0.004,-7.83607 0.0133,-14.37462 -0.19873,-22.97432 -0.21115,-8.5997 -0.64173,-19.25858 -1.06941,-27.63508 -0.42767,-8.37648 -0.85269,-14.47286 -1.33933,-20.60726 -0.48661,-6.13439 -1.03468,-12.30487 -1.65779,-18.3095 -0.62311,-6.00462 -1.32126,-11.84257 -2.29815,-18.33509 -0.97689,-6.4925 -2.23267,-13.64017 -3.63542,-20.65609 -1.40278,-7.01593 -2.95276,-13.90077 -4.72738,-20.99996 -1.77464,-7.0992 -3.77464,-14.41552 -6.41466,-22.31279 -2.64001,-7.89729 -5.9213,-16.37892 -9.5815,-24.81837 -3.66019,-8.43944 -7.6989,-16.83581 -11.89883,-24.39235 -4.19995,-7.55649 -8.5617,-14.27351 -13.65781,-21.16493 -5.09614,-6.89138 -10.92731,-13.95794 -16.09935,-19.7461 -5.17201,-5.78818 -9.68602,-10.29889 -15.03366,-15.02852 -5.3476,-4.72965 -11.52986,-9.67886 -18.79826,-14.68965 -7.2684,-5.01078 -15.62216,-10.08249 -23.15438,-14.15454 -7.53221,-4.07205 -14.24188,-7.14371 -22.06824,-10.44391 -7.82638,-3.30019 -16.76821,-6.82837 -26.60042,-10.03434 -9.83224,-3.20602 -20.55276,-6.08905 -31.70413,-8.46918 -11.15138,-2.38009 -22.73311,-4.25703 -31.44361,-5.43579 -8.71051,-1.17878 -14.55368,-1.6596 -22.22412,-2.10316 -7.67042,-0.44361 -17.17084,-0.85013 -25.26594,-0.98693 -8.09507,-0.13667 -14.78536,-0.003 -23.65304,0.54234 -8.86767,0.54612 -19.91227,1.50545 -29.57776,2.6871 -9.66553,1.18168 -17.9494,2.58546 -22.09216,2.44113 -4.14271,-0.14446 -4.14271,-1.83697 -4.14271,-3.52962 0,0 0.17067,-11.0529 0.17602,-12.66579 0.004,-1.61287 0.0165,-4.83687 0.003,-8.66957 -0.0148,-3.83269 -0.0517,-8.27443 -0.077,-12.09437 -0.0255,-3.81996 -0.0387,-7.0223 -0.0358,-10.19334 0.003,-3.17103 0.0216,-6.31191 0.0311,-7.88309 0.0105,-1.57118 -0.16131,-20.6007 -0.16717,-24.27721 -0.008,-3.67653 -0.0177,-11.03016 -0.0133,-18.46242 0.003,-7.43226 0.0223,-14.94262 0.0319,-23.14857 0.0105,-8.20593 0.0105,-17.10628 0.003,-24.67617 -0.008,-7.56991 -0.0188,-13.8088 -0.0628,-21.78012 -0.0441,-7.97134 -0.12013,-17.67403 -0.15801,-22.52586 -0.038,-4.85182 -0.20865,-25.74264 -0.24662,-29.10049 -0.038,-3.35785 -0.11396,-10.07533 -0.15189,-13.43427 -0.038,-3.35896 -0.72089,-22.41808 -0.91059,-25.47086 -0.1897,-3.0528 -0.56905,-9.15701 -1.07823,-15.02822 -0.5092,-5.87124 -1.1487,-11.51208 -1.79567,-16.03599 -0.64697,-4.52385 -1.30113,-7.92971 -2.0361,-11.56844 -0.73498,-3.63872 -1.55057,-7.50924 -2.48848,-10.95278 -0.9379,-3.44352 -1.99886,-6.4613 -3.40657,-10.04069 -1.40765,-3.57939 -3.16527,-7.728228 -5.16373,-11.632295 -1.99852,-3.904077 -4.23851,-7.564701 -6.05296,-10.245407 -1.81445,-2.680696 -3.20503,-4.383023 -3.90151,-5.235584 -0.69641,-0.852584 -5.85233,-6.836714 -7.15561,-7.982113 -1.30331,-1.145411 -3.90993,-3.436289 -6.73191,-5.70887 -2.82202,-2.27257 -5.858,-4.525335 -9.35188,-6.680279 -3.49385,-2.154955 -7.44895,-4.213514 -11.70473,-6.085863 -4.2558,-1.87235 -8.81254,-3.558843 -14.02602,-4.97324 -5.21347,-1.414394 -11.08196,-2.556007 -16.23335,-3.305477 -5.15138,-0.749463 -9.58843,-1.106763 -14.51939,-1.06874 -4.93095,0.03802 -10.35129,0.470925 -15.36824,1.10528 -5.01694,0.634388 -9.62925,1.470339 -14.4944,2.841602 -4.86514,1.371296 -9.97688,3.275725 -15.01839,5.598409 -5.04152,2.322671 -10.00445,5.059401 -14.10769,7.724924 -4.10325,2.665534 -7.33781,5.253733 -11.03769,8.753735 -3.69988,3.500003 -7.86041,7.907655 -11.39586,12.424855 -3.53545,4.517213 -6.4442,9.14151 -8.86565,13.978951 -2.42149,4.837417 -4.35508,9.886892 -5.84596,14.304002 -1.49087,4.41708 -2.53744,8.19636 -3.58342,12.43132 -1.04596,4.23494 -2.09144,8.92629 -2.92989,14.37121 -0.83841,5.44491 -1.47008,11.64444 -1.93478,17.14542 -0.4647,5.50098 -0.76258,10.30596 -1.09264,15.24307 -0.33005,4.9371 -0.69238,10.00843 -0.92097,16.36006 -0.22858,6.3516 -0.32347,13.98288 -0.41836,21.60261 -0.0948,7.61973 -0.18975,15.2259 -0.23721,22.56653 -0.0475,7.34064 -0.0475,14.41552 -0.0664,21.03374 -0.0189,6.61818 -0.0569,12.77916 -0.0682,18.80789 -0.0114,6.02872 0.004,11.92451 0.003,19.50609 -9.7e-4,7.58158 -0.0204,16.84784 -0.0677,27.47158 -0.0474,10.62374 -0.12333,22.60385 -0.16133,28.59406 -0.038,5.99022 0.13288,31.47794 0.13684,36.87277 0.004,5.3948 0.0133,16.18275 0.0259,26.06227 0.0148,9.87945 0.0325,18.84993 0.0229,27.29465 -0.0106,8.44472 -0.0475,16.3633 -0.0667,20.3221 -0.0189,3.95882 0.15174,39.55013 0.0853,43.69642 -0.0664,4.14632 -0.19921,12.43856 -0.24662,23.9855 -0.0474,11.54696 -0.0106,26.34829 8.8e-4,45.83395 0.0114,19.48565 -0.01,43.65457 -0.0535,59.76742 -0.0468,16.11285 -0.12241,24.16846 -0.16049,28.19564 -0.038,4.02715 0.30363,53.32656 0.30353,63.85124 -1e-4,10.52464 -2.9e-4,31.57218 -0.003,49.46072 -0.003,17.88854 -0.01,32.61738 0.0285,43.72209 0.0357,11.10469 0.11156,18.58584 0.25668,25.49505 0.14511,6.90918 0.35947,13.24598 0.65258,18.80835 0.2931,5.56237 0.66494,10.35068 1.48539,17.04503 0.82045,6.69439 2.08943,15.29453 3.53974,22.60846 1.45034,7.31395 3.08179,13.34067 5.10438,19.25254 2.02261,5.91185 4.43717,11.71138 6.9833,16.58778 2.54608,4.87638 5.22189,8.82795 8.11346,12.58796 2.89159,3.76003 5.9938,7.32242 10.19773,11.12473 4.20394,3.80231 9.50343,7.83928 14.33318,10.98404 4.82973,3.1448 9.18542,5.39487 15.00395,7.67296 5.81848,2.27807 13.09771,4.58346 19.94395,6.02977 6.84621,1.44628 13.25873,2.03331 19.6706,2.19279 6.41189,0.1595 12.82148,-0.10825 18.97338,-0.98521 6.15187,-0.87691 12.04402,-2.36258 17.64637,-4.21965 5.60234,-1.85706 10.9187,-4.08673 15.87228,-6.6553 4.95356,-2.56857 9.54842,-5.47847 13.74018,-8.61117 4.19171,-3.13274 7.98318,-6.49043 11.34049,-10.11289 3.35734,-3.62246 6.28496,-7.51536 8.84316,-11.29836 2.55821,-3.783 4.74843,-7.45776 6.80747,-11.64961 2.05904,-4.19186 3.98703,-8.90147 5.63788,-13.55301 1.65083,-4.65151 3.02339,-9.24081 4.21098,-14.37227 1.1876,-5.13149 2.18892,-10.79993 2.97804,-16.40782 0.78911,-5.60789 1.36582,-11.15514 1.83049,-16.56462 0.4647,-5.40948 0.8177,-10.687 0.99418,-13.32487 0.17642,-2.6379 0.0965,-2.6014 0.26536,-5.21175 z"
     id="path3639" />
</svg>
